<svg xmlns="http://www.w3.org/2000/svg" xmlns:xlink="http://www.w3.org/1999/xlink" fill="none" version="1.1" width="400" height="400" viewBox="0 0 400 400"><defs><clipPath id="master_svg0_9_9"><rect x="0" y="0" width="400" height="400" rx="0"/></clipPath><clipPath id="master_svg1_9_236"><rect x="30" y="30" width="340" height="340" rx="0"/></clipPath></defs><g style="mix-blend-mode:passthrough" clip-path="url(#master_svg0_9_9)"><g style="mix-blend-mode:passthrough" clip-path="url(#master_svg1_9_236)"><g style="mix-blend-mode:passthrough" transform="matrix(0.6657394766807556,-0.7461842894554138,0.7250989079475403,0.6886448860168457,-224.90423047542572,123.2645856142044)"><rect x="30" y="324" width="395.7229919433594" height="52.493709564208984" rx="26.246854782104492" fill="#46D955" fill-opacity="1"/></g><g style="mix-blend-mode:passthrough"><rect x="38" y="30" width="321" height="72" rx="36" fill="#1E90FF" fill-opacity="1"/></g><g style="mix-blend-mode:passthrough"><rect x="171" y="299" width="142" height="72" rx="36" fill="#1E90FF" fill-opacity="1"/></g><g style="mix-blend-mode:passthrough" transform="matrix(0.6657394170761108,-0.7461843490600586,0.7250989079475403,0.6886448264122009,-207.68720573186874,155.9088369011879)"><path d="M75,347.5C75,362.1356,86.86449999999999,374,101.5,374L427.317,374C441.953,374,453.817,362.1356,453.817,347.5C453.817,332.8645,441.953,321,427.317,321L101.5,321C86.86449999999999,321,75,332.8645,75,347.5Z" fill="#1E90FF" fill-opacity="1"/></g><g style="mix-blend-mode:passthrough"><rect x="32" y="299" width="255" height="72" rx="36" fill="#46D955" fill-opacity="1"/></g><g style="mix-blend-mode:passthrough"><rect x="298" y="298" width="72" height="72" rx="36" fill="#46D955" fill-opacity="1"/></g></g></g></svg>